<svg width="512" height="512" viewBox="0 0 512 512" fill="none" xmlns="http://www.w3.org/2000/svg">
  <!-- Main green circle with lime/light green color (#84cc16) -->
  <circle cx="256" cy="256" r="200" fill="#84cc16"/>
  
  <!-- Inner white circle -->
  <circle cx="256" cy="256" r="140" fill="white"/>
  
  <!-- Stylized "B" for Bento in the center -->
  <path d="M216 180 L216 332 L276 332 C300 332 316 316 316 292 C316 276 308 264 296 260 C304 256 310 244 310 232 C310 208 296 180 272 180 Z M236 200 L268 200 C284 200 290 212 290 224 C290 236 284 248 268 248 L236 248 Z M236 264 L272 264 C288 264 296 276 296 288 C296 300 288 312 272 312 L236 312 Z" fill="#84cc16"/>
</svg>
